<?xml version="1.0" encoding="UTF-8" standalone="no"?>
<!-- Created with Inkscape (http://www.inkscape.org/) -->

<svg
   xmlns:dc="http://purl.org/dc/elements/1.1/"
   xmlns:cc="http://creativecommons.org/ns#"
   xmlns:rdf="http://www.w3.org/1999/02/22-rdf-syntax-ns#"
   xmlns:svg="http://www.w3.org/2000/svg"
   xmlns="http://www.w3.org/2000/svg"
   xmlns:sodipodi="http://sodipodi.sourceforge.net/DTD/sodipodi-0.dtd"
   xmlns:inkscape="http://www.inkscape.org/namespaces/inkscape"
   id="svg2985"
   version="1.1"
   inkscape:version="0.48.4 r9939"
   width="257"
   height="515"
   sodipodi:docname="human-outline-front.png">
  <metadata
     id="metadata2991">
    <rdf:RDF>
      <cc:Work
         rdf:about="">
        <dc:format>image/svg+xml</dc:format>
        <dc:type
           rdf:resource="http://purl.org/dc/dcmitype/StillImage" />
        <dc:title></dc:title>
      </cc:Work>
    </rdf:RDF>
  </metadata>
  <defs
     id="defs2989" />
  <sodipodi:namedview
     pagecolor="#ffffff"
     bordercolor="#666666"
     borderopacity="1"
     objecttolerance="10"
     gridtolerance="10"
     guidetolerance="10"
     inkscape:pageopacity="0"
     inkscape:pageshadow="2"
     inkscape:window-width="1600"
     inkscape:window-height="1153"
     id="namedview2987"
     showgrid="false"
     inkscape:snap-grids="true"
     inkscape:zoom="2.581283"
     inkscape:cx="167.42049"
     inkscape:cy="410.5123"
     inkscape:window-x="0"
     inkscape:window-y="25"
     inkscape:window-maximized="1"
     inkscape:current-layer="svg2985" />
  <path
     style="fill:#000000"
     d="m 101.71417,506.94607 -4.398405,-0.63977 -0.998836,-1.59522 c -0.54936,-0.87738 -0.70105,-2.78169 -0.3371,-4.23181 l 0.66175,-2.63659 2.735506,-1.43646 c 1.504525,-0.79005 4.483015,-3.0514 6.618865,-5.02521 l 3.88336,-3.58875 -0.47374,-9.83818 -0.47375,-9.83818 -4.7348,-10.4048 c -6.877605,-15.11367 -8.313211,-18.773 -9.770531,-24.9048 l -1.30717,-5.5 0.14989,-13.5 0.14988,-13.5 2.3247,-8.5 2.324686,-8.5 0.0183,-9 0.0183,-9 -5.149206,-14.5 c -2.83206,-7.975 -6.12961,-16.97233 -7.32789,-19.99406 -2.96296,-7.47175 -4.90086,-22.54462 -6.04351,-47.00594 l -0.9576,-20.5 0.91033,-4.5 c 2.2331,-11.03878 6.10579,-37.94213 6.09128,-42.31574 -0.009,-2.64866 0.47448,-5.73216 1.07392,-6.85223 0.59944,-1.12007 1.49358,-4.88705 1.98698,-8.37107 l 0.89709,-6.33458 -2.08053,-6.81319 c -2.98136,-9.76316 -3.43224,-9.58504 -4.80041,1.89644 -0.67443,5.6597 -1.89919,13.29205 -2.72168,16.96076 l -1.49544,6.67039 -6.75173,13.32961 c -3.71345,7.33129 -9.94174,19.40461 -13.84065,26.82961 l -7.088922,13.5 -0.466657,11 -0.466658,11 -2.192659,8 c -2.380238,8.68439 -4.243876,12.2669 -6.876904,13.21961 -0.930453,0.33667 -2.816733,1.86599 -4.191733,3.39849 l -2.5,2.78635 -3.290456,0.29133 c -1.809751,0.16024 -3.609751,-0.21621 -4,-0.83654 -0.390249,-0.62033 -1.589814,-1.2948 -2.665699,-1.49881 l -1.956154,-0.37093 -0.694166,-2.49475 C 21.12423,310.42894 20.767,303.5688 20.712176,296.5563 c -0.05482,-7.0125 -0.328576,-12.75 -0.608339,-12.75 -0.279762,0 -2.37228,1.35 -4.650038,3 -2.277759,1.65 -4.748863,3 -5.4913413,3 l -1.349962,0 0,-2.42322 c 0,-1.33276 1.7882043,-5.72026 3.9737873,-9.75 l 3.973786,-7.32678 7.353082,-7.20518 7.353081,-7.20518 2.306883,-8.29482 c 2.731005,-9.81983 6.70885,-24.77022 10.945766,-41.13872 3.168398,-12.24049 7.012554,-22.07928 10.538598,-26.97265 l 2.02954,-2.81655 0.56687,-18.68345 0.56687,-18.68345 -1.25144,-5.41135 -1.25144,-5.41136 0.55563,-6.58864 0.55562,-6.58865 3.89794,-8.20388 3.89794,-8.203888 3.37794,-2.576472 c 1.85786,-1.417062 7.36755,-3.879964 12.24374,-5.473115 14.69179,-4.800102 22.690751,-8.069237 26.115801,-10.673381 l 3.25,-2.471049 0,-5.237495 c 0,-6.234243 -2.64693,-14.310972 -5.68507,-17.347179 -1.20178,-1.201023 -2.65296,-3.878265 -3.22483,-5.949428 l -1.039775,-3.76575 0.564015,-9.049182 c 1.02923,-16.512825 3.77625,-21.233121 15.10553,-25.956182 l 6.21987,-2.5930012 5.78013,0.0077 5.78013,0.0077 6.45974,3.2422672 6.45975,3.242268 2.96406,4.227733 2.96406,4.227733 0.84428,9.272267 c 1.28892,14.15554 -0.14893,22.663731 -3.84406,22.746469 -1.48797,0.03332 -3.21403,5.036043 -3.97682,11.52615 l -0.60242,5.125715 2.13319,4.181396 2.13318,4.181397 5.73252,2.866014 c 5.77895,2.889233 17.30067,7.145131 19.34353,7.145131 0.60668,0 3.97125,1.368863 7.47682,3.041919 l 6.37377,3.041919 3.171,4.608884 c 1.74404,2.53489 4.05941,7.35352 5.14525,10.70808 l 1.97426,6.0992 0.36301,25.45645 0.363,25.45646 1.53457,5.27875 c 0.84402,2.90331 3.68264,9.67291 6.30804,15.04354 l 4.77347,9.7648 2.25118,10 c 6.98001,31.00603 12.77162,45.78503 21.74939,55.5 2.28719,2.475 6.66897,8.20042 9.73729,12.72316 l 5.57877,8.22315 -1.52684,1.52685 c -1.98232,1.98231 -3.17954,1.9253 -7.67255,-0.36536 l -3.71144,-1.8922 -0.011,9.1422 c -0.006,5.02821 -0.29157,10.83982 -0.63449,12.91469 l -0.62348,3.77249 -3.88913,3.08024 -3.88912,3.08025 -3.37752,-1.60274 c -1.85764,-0.8815 -3.86045,-1.60273 -4.45071,-1.60273 -0.59025,0 -1.7713,-1.35 -2.62455,-3 -0.85325,-1.65 -1.97825,-3 -2.5,-3 -2.1019,0 -4.56331,-7.68839 -7.94806,-24.82629 -0.57856,-2.92946 -1.05452,-8.55446 -1.05767,-12.5 l -0.006,-7.17371 -6.58246,-10 c -3.62035,-5.5 -7.94976,-12.7 -9.62092,-16 -1.67116,-3.3 -3.98165,-7.33515 -5.13443,-8.96699 -6.767,-9.57927 -11.52148,-26.0101 -11.72877,-40.53301 -0.0667,-4.675 -0.46452,-9.625 -0.88399,-11 l -0.76267,-2.5 -0.56926,1.5 c -0.86222,2.27199 -1.67626,8.56879 -2.32701,18 l -0.5865,8.5 1.24274,6 c 0.68351,3.3 1.38191,9.4214 1.552,13.60311 l 0.30926,7.60311 2.07147,5.39689 c 6.16764,16.0688 6.46949,38.90299 1.02055,77.20288 -1.22829,8.63351 -8.03212,34.65297 -10.90257,41.69401 l -1.83454,4.5 0.7158,13.5 0.71579,13.5 2.73136,12.5 2.73135,12.5 -0.53507,6.24809 c -0.29428,3.43645 -3.91803,18.06145 -8.05277,32.5 l -7.51772,26.25191 0.43364,7.89699 0.43364,7.89698 2.66375,2.78036 c 1.46506,1.52919 3.96661,3.32001 5.55899,3.9796 l 2.89524,1.19925 0.60738,2.41998 c 0.7361,2.93287 -0.34594,4.32854 -1.78153,2.29788 l -1.03995,-1.47104 0.55065,1.71797 c 0.82179,2.56386 3.2e-4,2.7425 -14.82295,3.22348 l -13.65454,0.44305 -1.96242,-1.96242 -1.96241,-1.96241 -2.21526,2.06382 -2.21526,2.06383 -5.51457,-0.0735 c -3.03302,-0.0404 -7.53958,0.11531 -10.01458,0.34611 -2.475,0.23079 -6.47929,0.13173 -8.89842,-0.22014 z m 15.41258,-8.22359 c 0.64258,-3.80337 2.00965,-5.7257 3.21481,-4.52054 0.32775,0.32775 0.11453,1.65243 -0.47383,2.94374 l -1.06975,2.34784 2.41305,-0.46129 c 2.37117,-0.45328 5.40156,1.17173 5.40156,2.89651 0,0.48266 -1.6875,0.81832 -3.75,0.74592 l -3.75,-0.13164 3.5,-0.69726 3.5,-0.69726 -1.88592,-0.83025 -1.88593,-0.83024 -1.61407,1.01633 c -0.88775,0.55898 -1.75958,1.75559 -1.9374,2.65914 l -0.32333,1.64282 4.00594,0 4.00593,0 0.77339,-2.25 c 1.20714,-3.51195 0.36956,-18.66101 -1.36842,-24.75 l -1.56986,-5.5 0.65996,-30.39574 0.65996,-30.39575 -1.62573,-6.48242 -1.62573,-6.48243 0.57786,-4.12183 c 0.31783,-2.26701 1.28111,-6.59683 2.14062,-9.62183 l 1.56276,-5.5 -0.58821,-22 c -0.32351,-12.1 -0.2734,-34.06614 0.11135,-48.81363 l 0.69956,-26.81364 1.10548,1.10548 1.10547,1.10547 0.78625,19.20816 c 0.43243,10.56449 1.15243,31.35816 1.6,46.20816 l 0.81376,27 2.30066,7 c 2.79448,8.50251 2.76895,13.50704 -0.1185,23.23345 l -2.20687,7.43387 1.68507,15.66634 c 0.92679,8.61649 1.67852,22.46742 1.67051,30.77985 l -0.0146,15.11351 -1.23453,5.38649 c -0.67899,2.96257 -1.15273,8.94526 -1.05274,13.29488 l 0.18179,7.90839 1.30274,0.82629 c 2.05964,1.30639 6.44578,0.99197 7.72885,-0.55404 l 1.17101,-1.41097 -1.20307,-0.74354 -1.20307,-0.74354 0.81856,1.32445 0.81855,1.32445 -1.74583,-0.66994 c -0.96021,-0.36847 -2.15903,-0.66994 -2.66405,-0.66994 -0.50501,0 -0.91821,-0.45 -0.91821,-1 0,-0.55 1.0125,-1.00689 2.25,-1.01531 l 2.25,-0.0153 -1.47104,-0.93031 c -0.80907,-0.51167 -1.14933,-1.25202 -0.75613,-1.64522 1.18355,-1.18355 4.72717,2.74608 4.72717,5.2421 l 0,2.32596 2.57322,0.64583 2.57321,0.64584 1.17679,-1.18603 1.17678,-1.18603 -1.91404,0.72918 -1.91405,0.72919 0.71598,-1.15849 0.71599,-1.15848 -1.55194,0.59553 -1.55194,0.59554 0,-1.10699 c 0,-0.60887 0.66386,-1.10701 1.47525,-1.10701 l 1.47525,0 -1.00323,-2.63869 c -0.55177,-1.45128 -0.77823,-2.86369 -0.50323,-3.13869 0.275,-0.275 0.92812,0.62604 1.45138,2.00231 0.88241,2.32093 2.90203,3.77507 5.24307,3.77507 0.53621,0 0.2744,-1.00013 -0.58179,-2.22251 -0.85618,-1.22237 -1.5567,-2.59893 -1.5567,-3.05901 0,-1.77951 1.97998,0.52237 4.09913,4.76556 1.21925,2.4413 2.64377,4.17486 3.1656,3.85235 l 0.9488,-0.58639 -1.35677,-0.875 -1.35676,-0.875 1.36315,-0.87895 1.36316,-0.87895 -1.36316,-0.48414 -1.36315,-0.48415 0.83176,-0.88533 0.83176,-0.88534 1.27848,1.74843 c 1.37739,1.8837 2.558,2.2857 2.558,0.87102 0,-0.48257 -2.46646,-2.16876 -5.48103,-3.74709 l -5.48103,-2.86969 -1.15615,-2.79119 c -0.63588,-1.53516 -1.20692,-6.71147 -1.26897,-11.50291 l -0.11282,-8.71171 2.20951,-7 c 1.21524,-3.85 3.3731,-10.80343 4.79527,-15.45207 1.42216,-4.64865 3.0011,-8.95255 3.50875,-9.56424 1.71784,-2.06986 3.97922,-13.93188 4.57226,-23.98369 l 0.58999,-10 -3.0852,-12 -3.0852,-12 -0.003,-8.19098 -0.003,-8.19099 -1.05855,-0.65421 -1.05854,-0.65422 0.68176,-3.1548 c 0.37496,-1.73514 1.72926,-5.23383 3.00955,-7.77488 3.03939,-6.0324 9.64719,-31.29722 11.9995,-45.87992 l 1.85505,-11.5 0.0356,-23.5 0.0356,-23.5 -1.31208,-4.5 c -0.72164,-2.475 -2.01843,-6.525 -2.88176,-9 -0.86332,-2.475 -1.78178,-5.70558 -2.04101,-7.17906 l -0.47132,-2.67905 -1.39692,0.53604 c -1.80285,0.69182 -1.76068,-0.0738 0.21446,-3.8933 l 1.61138,-3.11606 -0.57363,-4.08428 c -0.3155,-2.24636 -1.26562,-6.54486 -2.11138,-9.55222 -2.1698,-7.71541 -1.91841,-14.34801 0.96437,-25.4432 3.14632,-12.10954 5.7066,-28.90914 4.89723,-32.1339 -0.66018,-2.63036 0.44666,-3.20897 2.40066,-1.25497 1.509,1.509 1.53013,6.21751 0.0709,15.80596 l -1.14227,7.50595 1.63566,7.19145 1.63566,7.19145 0,9.66942 0,9.66942 4.61203,10.92649 c 2.53662,6.00957 6.80226,14.28157 9.4792,18.38223 2.67694,4.10066 5.82503,9.36867 6.99576,11.70669 1.17074,2.33801 3.40672,5.60094 4.96886,7.25094 1.56213,1.65 3.93612,5.4816 5.27552,8.51467 l 2.43527,5.51468 -0.46046,6.98532 c -0.25326,3.84193 -0.0796,8.73011 0.38595,10.86263 l 0.84641,3.87729 6.98073,0.43396 c 3.8394,0.23867 8.89323,0.004 11.23073,-0.521 l 4.25,-0.95496 0,1.32632 c 0,1.42146 -1.3161,1.96705 -7.30997,3.03031 l -3.80996,0.67586 0.66274,1.62746 c 0.3645,0.8951 1.19728,5.68051 1.85062,10.63423 0.65334,4.95373 1.55788,9.60543 2.0101,10.33713 l 0.82221,1.33036 1.02233,-1.02233 1.02234,-1.02234 -1.2945,-9.4285 c -0.71197,-5.18568 -0.94951,-10.27734 -0.52786,-11.3148 l 0.76662,-1.88629 0.82238,2 c 0.45231,1.1 0.87994,4.025 0.95029,6.5 0.0704,2.475 0.43949,6.1739 0.82029,8.21978 l 0.69237,3.71978 1.13504,-0.71978 1.13504,-0.71978 0.3861,-14.25525 0.3861,-14.25525 -1.77114,-0.56214 c -0.97343,-0.30917 -1.77044,-0.98181 -1.77044,-1.49475 0,-2.08848 2.90318,-0.68255 7.31025,3.54017 l 4.66805,4.47278 1.51085,-0.57977 c 2.8611,-1.09791 -3.85482,-11.64842 -12.96384,-20.36579 -5.13282,-4.91213 -6.61392,-7.68122 -12.30204,-23 -5.11355,-13.77144 -6.09927,-17.05227 -6.82157,-22.70482 -0.22523,-1.76264 -1.99138,-8.42353 -3.92477,-14.80196 l -3.51526,-11.59715 -3.36721,-4.89507 -3.36721,-4.89506 -1.60627,-8.80297 -1.60628,-8.80297 -0.44534,-23.16103 c -0.73359,-38.1515 -3.74448,-44.175358 -25.06984,-50.156987 -3.84973,-1.079827 -9.47452,-2.942496 -12.49952,-4.139264 l -5.5,-2.175941 -4.2815,-4.172515 -4.2815,-4.172515 -1.12679,-3.760875 c -1.27726,-4.263113 -2.24572,-4.684157 -3.85552,-1.676217 -3.36545,6.288399 -17.0855,6.644972 -23.70469,0.616065 l -2.25,-2.049351 0,4.353309 0,4.353309 -3.48766,3.194574 c -1.91822,1.757016 -4.95572,3.733982 -6.75,4.393259 -1.79429,0.659276 -5.512331,2.035238 -8.262331,3.057692 -2.75,1.022454 -7.475,2.34905 -10.5,2.947991 -3.025,0.59894 -7.83762,2.424766 -10.69471,4.057388 l -5.19472,2.96841 -3.44484,6.261348 c -1.89466,3.44374 -4.02997,8.62527 -4.74514,11.5145 l -1.30031,5.25316 1.27462,6.24684 1.27463,6.24685 -0.15752,18 -0.15751,18 -1.99389,5.5 c -1.09664,3.025 -3.0837,7.37125 -4.41568,9.65833 -2.833416,4.8651 -7.444933,17.24162 -7.444933,19.9809 0,3.18891 -6.342114,29.38946 -9.815575,40.55011 -3.089311,9.92632 -5.496185,13.77215 -12.085409,19.31066 -3.271702,2.75 -6.726842,6.575 -7.67809,8.5 -0.951248,1.925 -2.785103,4.89248 -4.075234,6.59439 -5.3364063,7.03968 -1.24339,7.3136 6.060792,0.40561 2.907719,-2.75 6.143282,-4.98382 7.190139,-4.96404 l 1.903377,0.036 -2.632282,2.21403 -2.632283,2.21404 0.02744,14.17586 c 0.01509,7.79672 0.387913,14.75911 0.828487,15.47197 l 0.801044,1.29612 0.482691,-1.47198 c 0.26548,-0.80958 0.664549,-5.17202 0.88682,-9.69429 l 0.40413,-8.22233 -1.083026,-0.39077 c -2.538091,-0.91578 0.553529,-1.48625 10.14255,-1.87154 12.558881,-0.50461 11.622192,0.60438 12.340136,-14.60998 l 0.598499,-12.68309 7.033287,-12 c 3.86831,-6.6 9.764,-17.175 13.10154,-23.5 l 6.06825,-11.5 2.11463,-8.35568 c 1.16305,-4.59562 2.35543,-12.92062 2.64974,-18.5 0.29431,-5.57937 1.17259,-12.13698 1.95173,-14.57246 1.60519,-5.01759 1.84988,-14.85548 0.49922,-20.07186 -0.49843,-1.925 -1.19849,-5.6375 -1.55569,-8.25 l -0.64946,-4.75 1.39097,0 1.39098,0 1.73577,8.07754 1.73578,8.07755 -0.21039,9.17245 -0.2104,9.17246 1.75569,4 c 0.96563,2.2 2.37241,5.35 3.12618,7 0.75377,1.65 1.6623,4.91789 2.01895,7.26197 l 0.64847,4.26197 -2.31542,8.98103 -2.31541,8.98104 3.78497,7.257 c 5.183096,9.93766 10.810501,19.09374 12.327001,20.05668 1.22475,0.77769 1.79676,3.70031 0.72422,3.70031 -0.29435,0 -1.67636,-0.74773 -3.07114,-1.66162 l -2.535945,-1.66162 -4.400426,-8.76179 c -2.42024,-4.81899 -4.85004,-9.03966 -5.39955,-9.37928 l -0.99911,-0.61749 -0.58955,2.7909 c -0.32425,1.535 -0.81711,3.6909 -1.09524,4.7909 -0.56758,2.24479 -1.60102,9.45766 -3.36701,23.5 l -1.19473,9.5 0.48716,22 0.48716,22 3.51615,13 c 1.93387,7.15 5.36382,17.725 7.6221,23.5 2.25828,5.775 4.387416,12.22404 4.731436,14.33121 l 0.62547,3.83121 0.935335,-1.33121 0.93533,-1.33121 0.4747,1 c 0.26108,0.55 1.23932,2.575 2.17387,4.5 l 1.69917,3.5 4.5,2.20878 4.5,2.20878 -3.31574,0.0412 c -4.6427,0.0577 -7.08799,-1.52535 -9.01927,-5.83901 l -1.66499,-3.71884 -0.0564,7.04954 c -0.031,3.87725 -1.268525,12.96865 -2.749995,20.20311 l -2.693576,13.15356 0,7.64138 0,7.64138 2.430256,9.82215 c 1.33664,5.40218 4.539405,14.26946 7.117265,19.70506 5.388,11.36098 7.36756,19.02812 7.41734,28.72854 l 0.0351,6.84563 -2.05695,2.88871 c -1.13132,1.5888 -4.5251,4.52699 -7.54173,6.52931 -3.016625,2.00233 -5.259995,3.86537 -4.985275,4.14009 0.27472,0.27472 1.925,-0.69999 3.667285,-2.16604 1.74229,-1.46604 3.38822,-2.44511 3.65762,-2.17571 0.2694,0.2694 -0.79961,1.60378 -2.37557,2.96529 l -2.86538,2.47547 2,-0.17419 2,-0.17419 1.77389,-3.25 c 0.97564,-1.7875 2.21314,-3.25 2.75,-3.25 1.38964,0 1.20842,1.3106 -0.49209,3.55887 -1.99825,2.64196 -1.88951,3.44113 0.46823,3.44113 l 2,0 0,-1.80887 c 0,-2.40252 2.6209,-5.90356 3.64946,-4.875 0.44714,0.44714 0.0595,2.12587 -0.86145,3.73052 l -1.67443,2.91753 1.69321,1.08671 1.69321,1.08672 -2.25,-0.47519 c -2.35106,-0.49652 -3.1722,0.83682 -1,1.62376 2.08895,0.75678 4.56664,-2.2414 5.26416,-6.37 z m -3.51416,3.08382 -1.5,-0.96937 1.19098,-0.0153 c 0.65504,-0.008 1.4691,0.43469 1.80902,0.98469 0.7673,1.24153 0.42112,1.24153 -1.5,0 z m -4.67563,-106.23369 c -2.36816,-3.68484 -3.47896,-6.61501 -4.029,-10.62803 l -0.61005,-4.4508 1.02818,0.63545 c 0.5655,0.3495 1.29952,1.99218 1.63116,3.65039 0.33165,1.65822 1.47344,4.81657 2.53733,7.01856 1.77532,3.6745 1.32727,6.70732 -0.55762,3.77443 z m 43.42563,-4.3447 c -1.12997,-1.13742 -0.90075,-8.18643 0.40829,-12.55559 1.21653,-4.06044 3.28546,-5.50065 2.32147,-1.61602 -0.30709,1.2375 -0.87817,5.10222 -1.26905,8.58827 -0.39089,3.48606 -1.04821,5.99856 -1.46071,5.58334 z m -8.3656,-3.75421 c -4.20946,-4.27944 -6.69786,-8.35119 -5.89633,-9.6481 l 0.66047,-1.06865 4.42573,5.69946 c 5.87101,7.5607 6.37358,10.67324 0.81013,5.01729 z m -38.8277,-7.88991 c -1.76035,-2.51325 -2.03636,-4.77749 -0.58238,-4.77749 0.86886,0 4.02568,5.05817 4.02568,6.45034 0,1.33826 -2.02244,0.35571 -3.4433,-1.67285 z m 39.74253,-2.95127 c -3.2478,-0.8705 -4.9607,-2.35613 -3.56554,-3.09247 0.42147,-0.22244 2.73949,0.35003 5.15114,1.27217 l 4.38484,1.67662 -1.38484,0.50079 c -0.76165,0.27543 -2.82518,0.11473 -4.5856,-0.35711 z m -18.17125,-170.17202 -1.19701,-1.44231 1.60594,-1.60594 c 2.00033,-2.00033 3.86436,-2.09403 3.12101,-0.15688 l -0.55606,1.44907 1.55049,-0.59498 1.5505,-0.59498 -0.36164,1.89591 c -0.4459,2.33766 -4.08894,3.00726 -5.71323,1.05011 z m -60.127971,-25.42697 -3.5,-1.72723 2.05106,-0.29348 c 1.12809,-0.16142 4.05309,0.5943 6.50001,1.67936 l 4.44893,1.97285 -3,0.0479 c -1.65,0.0263 -4.575,-0.72938 -6.5,-1.67936 z m 114.999991,1.35314 c 0,-0.81901 10.02918,-3.73642 11.25446,-3.27384 1.68105,0.63464 -5.54255,3.69347 -8.72234,3.69347 -1.39267,0 -2.53212,-0.18883 -2.53212,-0.41963 z M 90.776489,150.11692 c -3.29638,-1.62426 -6.93235,-5.8755 -5.90436,-6.90348 0.29174,-0.29174 2.09961,0.8473 4.01747,2.53121 l 3.48703,3.06165 5.150106,0 c 2.832555,0 6.745315,-0.66653 8.695035,-1.48117 l 3.54493,-1.48117 -0.3866,1.23117 c -1.29097,4.11114 -12.660631,5.97014 -18.603611,3.04179 z m 56.836101,-0.31062 0,-1 5.53212,0 c 6.07038,0 11.70451,-1.93423 15.20029,-5.21834 1.24284,-1.16758 2.4482,-1.93361 2.67858,-1.70227 0.85754,0.8611 -4.04281,5.51801 -7.56547,7.18963 l -3.64778,1.73098 -6.09887,0 -6.09887,0 0,-1 z m -53.396241,-8.59024 c -0.81912,-2.13459 0.0991,-3.40976 2.45527,-3.40976 l 1.940976,0 0,2.5 0,2.5 -1.893006,0 c -1.04115,0 -2.16761,-0.71561 -2.50324,-1.59024 z m 64.714161,-2.15976 c -0.008,-0.9625 0.43822,-2.04587 0.99265,-2.40748 1.62108,-1.0573 3.68943,0.21219 3.68943,2.26447 l 0,1.89301 -2.33333,0 -2.33334,0 -0.0154,-1.75 z m -28.65564,350.5 c -0.27741,-0.6875 -0.50439,-0.125 -0.50439,1.25 0,1.375 0.22698,1.9375 0.50439,1.25 0.27741,-0.6875 0.27741,-1.8125 0,-2.5 z m 2.54929,-22.25 c 0.0271,-12.21561 -2.19674,-43.46295 -3.23268,-45.42307 -2.10199,-3.97722 -2.93293,44.69736 -0.91032,53.32494 2.39528,10.21727 4.11009,6.94666 4.143,-7.90187 z m 0.75998,-69 0.90011,-4 -2.0998,-5.83223 -2.09981,-5.83223 -1.87588,4.83223 c -1.03173,2.65773 -2.11825,6.85723 -2.41449,9.33223 l -0.53861,4.5 1.57847,4.37573 c 0.86815,2.40665 1.61807,5.78165 1.66649,7.5 l 0.088,3.12427 1.94769,-7 c 1.07123,-3.85 2.35275,-8.8 2.84781,-11 z M 31.762596,303.61517 c 0.0825,-4.29488 0.195,-8.36521 0.25,-9.04517 0.055,-0.67997 -0.622396,-1.37543 -1.505325,-1.54547 l -1.605324,-0.30915 -0.635984,5.29546 c -1.460387,12.15979 -0.56009,18.75596 2.069185,15.16022 l 1.277448,-1.74702 0.15,-7.80887 z m 4.207071,7.44113 c 0.774637,-1.5125 1.738004,-5.225 2.140815,-8.25 0.402811,-3.025 1.178942,-6.34829 1.724736,-7.3851 l 0.992352,-1.8851 0.83531,1.35156 0.835311,1.35156 -0.849211,1.03354 c -0.467066,0.56845 -1.176028,3.22844 -1.57547,5.9111 l -0.726258,4.87755 1.247488,-0.41582 c 1.602759,-0.53426 5.01598,-9.48508 5.017041,-13.15668 l 8.15e-4,-2.81739 -1.75,0.48007 c -0.9625,0.26404 -3.4375,0.76476 -5.5,1.1127 l -3.75,0.63264 -0.04391,1.70468 c -0.02415,0.93758 -0.433909,5.07528 -0.91057,9.19488 -1.093384,9.44972 -0.351347,11.45919 2.311553,6.25981 z m 187.642923,-1.44246 c 0,-0.65586 -0.74812,-5.38086 -1.66249,-10.5 l -1.66249,-9.30754 -1.87269,0 -1.8727,0 0.90646,1.75 c 0.49855,0.9625 1.12883,5.00593 1.40062,8.9854 0.46042,6.74137 1.79416,10.2646 3.88573,10.2646 0.48266,0 0.87756,-0.53661 0.87756,-1.19246 z m -7,-7.47563 c 0,-0.36744 -0.49619,-3.51744 -1.10265,-7 l -1.10266,-6.33191 -1.36596,0 c -0.75128,0 -1.18166,0.5625 -0.9564,1.25 0.22526,0.6875 0.91804,3.8375 1.53951,7 0.90018,4.58076 2.98816,8.13175 2.98816,5.08191 z M 136.28366,70.891366 c 3.24195,-2.396878 8.32893,-10.62406 8.32893,-13.470396 0,-0.88807 0.87607,-2.49074 1.94682,-3.561491 2.7834,-2.7834 5.05318,-7.527867 5.05318,-10.562538 l 0,-2.608677 -1.13568,0.701888 -1.13568,0.701887 0.48307,-5.82519 c 0.52206,-6.295338 -0.59959,-12.227952 -3.19904,-16.920326 l -1.63964,-2.959775 -4.93651,-2.501525 -4.93652,-2.501526 -7.16657,-0.393786 -7.16657,-0.393787 -3.71414,1.225777 c -10.61388,3.502898 -15.14204,12.778285 -13.05147,26.734397 l 0.78643,5.25 -1.09384,0 c -0.60161,0 -1.09384,-0.525 -1.09384,-1.166667 0,-0.641666 -0.27085,-0.895819 -0.60188,-0.564782 -0.33104,0.331036 0.15865,2.891648 1.0882,5.690249 l 1.69008,5.088365 1.62266,-0.273582 1.62266,-0.273583 0.61037,3.5 c 0.3357,1.925 1.47831,5.018557 2.53914,6.874572 1.06082,1.856014 2.37298,4.218514 2.9159,5.25 0.54292,1.031485 1.55542,1.875428 2.25,1.875428 0.69458,0 1.26287,0.381234 1.26287,0.847186 0,1.777716 4.71705,3.116959 10.01574,2.84362 l 5.51574,-0.284536 3.13959,-2.321202 z m -14.17107,-7.085068 -2,-0.859429 7,0 7,0 -2,0.859429 c -1.1,0.472686 -3.35,0.859429 -5,0.859429 -1.65,0 -3.9,-0.386743 -5,-0.859429 z m -0.5,-2.891026 -4.5,-0.630427 3.375,-0.739273 c 4.19779,-0.919502 10.82151,-0.797238 14.125,0.260726 l 2.5,0.80064 -3.5,0.113335 c -1.925,0.06233 -4.4,0.273555 -5.5,0.46938 -1.1,0.195825 -4.025,0.07235 -6.5,-0.274381 z m 1,-7.549957 c 0,-1.817544 1.6645,-2.910883 2.46346,-1.61814 0.33091,0.535425 1.87294,0.880266 3.42673,0.766312 l 2.82508,-0.207189 -1.2454,-2 c -0.68496,-1.1 -1.5347,-3.652409 -1.88831,-5.672019 l -0.64293,-3.67202 1.03069,-0.636997 1.03068,-0.636998 0.006,2.809017 c 0.003,1.544959 0.67839,4.097955 1.5,5.673324 0.82161,1.575369 1.49384,3.712869 1.49384,4.75 l 1.6e-4,1.885693 -5,0 -5,0 0,-1.440983 z m 12,-10.527632 c 0,-0.532739 -0.675,-0.709594 -1.5,-0.393011 -2.521,0.967399 -1.66574,-1.605735 0.92626,-2.786729 2.9462,-1.342379 7.1319,-0.445436 7.95715,1.705114 l 0.60401,1.574022 -1.90956,-0.606068 c -1.05025,-0.333337 -2.19897,-0.137763 -2.55272,0.43461 -0.81116,1.312483 -3.52514,1.367963 -3.52514,0.07206 z m -20.3031,-0.741583 -1.80311,-0.456904 1.17555,-1.416449 c 1.91237,-2.304269 8.93305,-1.564715 8.92866,0.94054 -0.002,1.174447 -5.09085,1.746285 -8.3011,0.932813 z m -4.6969,-4.098686 c 0,-0.564135 1.99195,-1.786434 4.42656,-2.71622 l 4.42657,-1.69052 2.82343,0.941145 c 3.83919,1.27973 2.69951,2.762096 -2.17656,2.831016 -2.2,0.0311 -5.2375,0.417379 -6.75,0.858408 l -2.75,0.801871 0,-1.0257 z m 29,-0.17554 c -1.375,-0.431785 -4.1875,-0.554415 -6.25,-0.272511 l -3.75,0.512551 0,-1.099216 c 0,-0.604569 1.4625,-1.488185 3.25,-1.963592 l 3.25,-0.864375 4.25,1.551483 c 6.2169,2.269511 5.56725,4.119437 -0.75,2.13566 z"
     id="path3000"
     inkscape:connector-curvature="0" />
  <g
     inkscape:groupmode="layer"
     id="layer1"
     inkscape:label="Path" />
</svg>
